<svg fill="none" xmlns="http://www.w3.org/2000/svg">
<path d="M22.2559 1.68914C22.2486 1.675 22.2365 1.66392 22.2218 1.65789C20.5199 0.877022 18.7238 0.320203 16.8787 0.00136579C16.8619 -0.00175077 16.8446 0.000497555 16.8292 0.00779102C16.8137 0.0150845 16.801 0.0270518 16.7928 0.0419909C16.5482 0.485871 16.3262 0.941809 16.1276 1.40807C14.1386 1.10614 12.1155 1.10614 10.1265 1.40807C9.92653 0.940626 9.70096 0.484574 9.45078 0.0419909C9.4422 0.0273764 9.42942 0.0156848 9.41409 0.00843867C9.39877 0.00119258 9.38163 -0.00127209 9.36489 0.00136579C7.51951 0.319533 5.72337 0.876394 4.02166 1.65793C4.00709 1.66411 3.9948 1.67465 3.98648 1.68811C0.583388 6.77018 -0.348846 11.7273 0.108476 16.623C0.109763 16.635 0.113449 16.6466 0.119316 16.6572C0.125183 16.6677 0.133111 16.677 0.142628 16.6844C2.12422 18.1516 4.34065 19.2716 6.69733 19.9964C6.71393 20.0014 6.73165 20.0012 6.74812 19.9958C6.76458 19.9904 6.779 19.9801 6.78943 19.9662C7.2956 19.2775 7.7441 18.5482 8.13037 17.7858C8.13568 17.7753 8.13871 17.7639 8.13927 17.7521C8.13982 17.7404 8.13788 17.7287 8.13358 17.7178C8.12929 17.7069 8.12272 17.697 8.11433 17.6888C8.10593 17.6806 8.0959 17.6743 8.08488 17.6703C7.37763 17.3996 6.69293 17.0734 6.0372 16.6947C6.02529 16.6877 6.01528 16.6778 6.00807 16.6661C6.00086 16.6543 5.99666 16.6409 5.99584 16.6271C5.99502 16.6133 5.99762 16.5995 6.00339 16.587C6.00916 16.5744 6.01794 16.5635 6.02894 16.5551C6.16692 16.4521 6.30251 16.3458 6.43559 16.2365C6.44726 16.2269 6.46139 16.2207 6.47638 16.2187C6.49136 16.2167 6.50661 16.2189 6.52041 16.2251C10.8164 18.1857 15.4673 18.1857 19.7124 16.2251C19.7262 16.2185 19.7417 16.216 19.7569 16.2178C19.7721 16.2197 19.7864 16.2258 19.7983 16.2355C19.9315 16.3454 20.0675 16.4519 20.206 16.5551C20.217 16.5634 20.2259 16.5743 20.2318 16.5868C20.2376 16.5993 20.2403 16.613 20.2396 16.6268C20.2389 16.6406 20.2348 16.654 20.2277 16.6659C20.2205 16.6777 20.2106 16.6876 20.1988 16.6947C19.5445 17.0766 18.8592 17.4026 18.1501 17.6692C18.1391 17.6734 18.1291 17.6799 18.1207 17.6882C18.1124 17.6965 18.1059 17.7065 18.1017 17.7175C18.0975 17.7285 18.0956 17.7403 18.0963 17.7521C18.0969 17.7638 18.1001 17.7753 18.1054 17.7858C18.4982 18.544 18.946 19.2724 19.4454 19.965C19.4555 19.9792 19.4698 19.9899 19.4864 19.9955C19.5029 20.0011 19.5208 20.0014 19.5375 19.9963C21.8984 19.2739 24.1187 18.1538 26.1027 16.6844C26.1124 16.6774 26.1205 16.6683 26.1263 16.6579C26.1322 16.6475 26.1358 16.636 26.1369 16.624C26.6844 10.9641 25.2203 6.04759 22.2559 1.68914V1.68914ZM8.77194 13.642C7.47854 13.642 6.41282 12.4551 6.41282 10.9974C6.41282 9.53974 7.45787 8.35273 8.77194 8.35273C10.0963 8.35273 11.1517 9.55005 11.131 10.9973C11.131 12.4551 10.0859 13.642 8.77194 13.642V13.642ZM17.4943 13.642C16.2009 13.642 15.1352 12.4551 15.1352 10.9974C15.1352 9.53974 16.1803 8.35273 17.4943 8.35273C18.8187 8.35273 19.8741 9.55005 19.8534 10.9973C19.8534 12.4551 18.8187 13.642 17.4943 13.642Z" fill="white"/>
</svg>
