<svg width="34" height="193" viewBox="0 0 34 193" fill="none" xmlns="http://www.w3.org/2000/svg">
<rect width="34" height="19" fill="#B85512"/>
<rect y="19" width="17" height="20" fill="#B85512"/>
<rect y="58" width="17" height="19" fill="#B85512"/>
<rect y="96" width="17" height="20" fill="#B85512"/>
<rect y="135" width="17" height="19" fill="#B85512"/>
<rect y="173" width="17" height="20" fill="#B85512"/>
<rect x="17" y="19" width="17" height="20" fill="#B85512"/>
<rect x="17" y="58" width="17" height="19" fill="#B85512"/>
<rect x="17" y="96" width="17" height="20" fill="#B85512"/>
<rect x="17" y="135" width="17" height="19" fill="#B85512"/>
<rect x="17" y="173" width="17" height="20" fill="#B85512"/>
<rect y="39" width="34" height="19" fill="#B85512"/>
<rect y="77" width="34" height="19" fill="#B85512"/>
<rect y="116" width="34" height="19" fill="#B85512"/>
<rect y="154" width="34" height="19" fill="#B85512"/>
<path d="M1.13333 1H0V19H34V14.6364H31.1667V16.8182H9.06667V14.0909H6.23333V11.9091H3.4V3.18182H1.13333V1Z" fill="#793100"/>
<path d="M0.566667 20H0V39H17V34.3939H15.5833V36.697H4.53333V33.8182H3.11667V31.5152H1.7V22.303H0.566667V20Z" fill="#793100"/>
<path d="M0.566667 59H0V77H17V72.6364H15.5833V74.8182H4.53333V72.0909H3.11667V69.9091H1.7V61.1818H0.566667V59Z" fill="#793100"/>
<path d="M0.566667 97H0V116H17V111.394H15.5833V113.697H4.53333V110.818H3.11667V108.515H1.7V99.303H0.566667V97Z" fill="#793100"/>
<path d="M0.566667 136H0V154H17V149.636H15.5833V151.818H4.53333V149.091H3.11667V146.909H1.7V138.182H0.566667V136Z" fill="#793100"/>
<path d="M0.566667 175H0V193H17V188.636H15.5833V190.818H4.53333V188.091H3.11667V185.909H1.7V177.182H0.566667V175Z" fill="#793100"/>
<path d="M18.1333 20H17V39H34V34.3939H32.5833V36.697H24.3667V34.178H22.95V31.875H21.5333V22.303H18.1333V20Z" fill="#793100"/>
<path d="M18.1333 59H17V77H34V72.6364H32.5833V74.8182H24.3667V72.4318H22.95V70.25H21.5333V61.1818H18.1333V59Z" fill="#793100"/>
<path d="M18.1333 97H17V116H34V111.394H32.5833V113.697H24.3667V111.178H22.95V108.875H21.5333V99.303H18.1333V97Z" fill="#793100"/>
<path d="M18.1333 136H17V154H34V149.636H32.5833V151.818H24.3667V149.432H22.95V147.25H21.5333V138.182H18.1333V136Z" fill="#793100"/>
<path d="M18.1333 175H17V193H34V188.636H32.5833V190.818H24.3667V188.432H22.95V186.25H21.5333V177.182H18.1333V175Z" fill="#793100"/>
<path d="M1.13333 39H0V58H34V53.3939H31.1667V55.697H9.06667V52.8182H6.23333V50.5152H3.4V41.303H1.13333V39Z" fill="#793100"/>
<path d="M1.13333 78H0V96H34V91.6364H31.1667V93.8182H9.06667V91.0909H6.23333V88.9091H3.4V80.1818H1.13333V78Z" fill="#793100"/>
<path d="M1.13333 116H0V135H34V130.394H31.1667V132.697H9.06667V129.818H6.23333V127.515H3.4V118.303H1.13333V116Z" fill="#793100"/>
<path d="M1.13333 155H0V173H34V168.636H31.1667V170.818H9.06667V168.091H6.23333V165.909H3.4V157.182H1.13333V155Z" fill="#793100"/>
</svg>
